<svg xmlns="http://www.w3.org/2000/svg" viewBox="0 0 360 110" role="img" aria-label="島ポテこ SHIMA POTEKO" fill="none">
  <title>島ポテこ SHIMA POTEKO</title>
  <g transform="translate(6,8)">
    <line x1="0" y1="86" x2="120" y2="86" stroke="currentColor" stroke-width="1.4"/>
    <circle cx="78" cy="22" r="11" fill="#b04a2e"/>
    <path d="M8 86 Q12 56 32 50 Q52 44 64 56 Q72 64 76 86 Z" fill="currentColor"/>
    <path d="M76 86 Q82 70 96 66 Q108 63 116 78 L120 86 Z" fill="#b04a2e"/>
    <g stroke="currentColor" stroke-width="1.2" opacity=".5">
      <line x1="0" y1="94" x2="6" y2="94"/>
      <line x1="12" y1="94" x2="22" y2="94"/>
      <line x1="28" y1="94" x2="40" y2="94"/>
      <line x1="46" y1="94" x2="60" y2="94"/>
      <line x1="66" y1="94" x2="78" y2="94"/>
      <line x1="84" y1="94" x2="96" y2="94"/>
      <line x1="102" y1="94" x2="116" y2="94"/>
    </g>
  </g>
  <line x1="142" y1="22" x2="142" y2="88" stroke="currentColor" stroke-width="1" opacity=".3"/>
  <text x="158" y="58" font-family="'Zen Old Mincho','Shippori Mincho',serif" font-weight="600" font-size="32" letter-spacing="2" fill="currentColor">島ポテこ</text>
  <text x="159" y="82" font-family="'Cormorant Garamond',Georgia,serif" font-style="italic" font-size="13" letter-spacing="3.4" fill="currentColor" opacity=".75">SHIMA POTEKO</text>
</svg>
